HIERARCHY
ROOT pelvis
{
	OFFSET 0.00 0.00 0.00
	CHANNELS 6 Xposition Yposition Zposition Xrotation Yrotation Zrotation
	JOINT lfemur
	{
		OFFSET 0.00000 3.26371 0.00000
		CHANNELS 3 Xrotation Yrotation Zrotation
		JOINT ltibia
		{
			OFFSET 0.00000 0.00000 -17.39272
			CHANNELS 3 Xrotation Yrotation Zrotation
			JOINT lfoot
			{
				OFFSET 0.00000 0.00000 -17.72520
				CHANNELS 3 Xrotation Yrotation Zrotation
				JOINT ltoes
				{
					OFFSET 4.21806 0.00000 0.00000
					CHANNELS 3 Xrotation Yrotation Zrotation
				}
			}
		}
	}
	JOINT rfemur
	{
		OFFSET 0.00000 -3.26371 0.00000
		CHANNELS 3 Xrotation Yrotation Zrotation
		JOINT rtibia
		{
			OFFSET 0.00000 0.00000 -17.39272
			CHANNELS 3 Xrotation Yrotation Zrotation
			JOINT rfoot
			{
				OFFSET 0.00000 0.00000 -17.72520
				CHANNELS 3 Xrotation Yrotation Zrotation
				JOINT rtoes
				{
					OFFSET 4.21806 0.00000 0.00000
					CHANNELS 3 Xrotation Yrotation Zrotation
				}
			}
		}
	}
	JOINT thorax
	{
		OFFSET -1.96850 0.00000 6.16593
		CHANNELS 6 Xposition Yposition Zposition Xrotation Yrotation Zrotation
		JOINT head
		{
			OFFSET 0.00000 0.00000 18.21355
			CHANNELS 6 Xposition Yposition Zposition Xrotation Yrotation Zrotation
		}
		JOINT lclavicle
		{
			OFFSET 0.00000 0.00000 15.13875
			CHANNELS 3 Xrotation Yrotation Zrotation
			JOINT lhumerus
			{
				OFFSET 0.00000 7.18963 -1.52650
				CHANNELS 3 Xrotation Yrotation Zrotation
				JOINT lradius
				{
					OFFSET 0.00000 0.00000 -10.12096
					CHANNELS 3 Xrotation Yrotation Zrotation
					JOINT lhand
					{
						OFFSET 0.00000 0.00000 -10.45726
						CHANNELS 3 Xrotation Yrotation Zrotation
					}
				}
			}
		}
		JOINT rclavicle
		{
			OFFSET 0.00000 0.00000 15.13875
			CHANNELS 3 Xrotation Yrotation Zrotation
			JOINT rhumerus
			{
				OFFSET 0.00000 -7.18963 -1.52650
				CHANNELS 3 Xrotation Yrotation Zrotation
				JOINT rradius
				{
					OFFSET 0.00000 0.00000 -10.12096
					CHANNELS 3 Xrotation Yrotation Zrotation
					JOINT rhand
					{
						OFFSET 0.00000 0.00000 -10.45726
						CHANNELS 3 Xrotation Yrotation Zrotation
					}
				}
			}
		}
	}
}
MOTION
Frames: 9
Frame Time: 0.008333
 -64.5518 -1.3632 28.0210 -3.3251 3.4650 -28.0945 55.5087 -40.7499 64.2313 -0.0000 83.1416 0.0000 0.0000 -1.0159 -9.4630 0.0000 -25.7250 -0.0000 -17.4126 22.9479 -2.3326 -0.0000 24.1893 0.0000 0.0000 -6.0450 -22.9426 0.0000 -37.3372 -0.0000 -66.5787 1.1026 34.0138 3.7775 0.6181 -0.4693 -66.4000 1.0053 52.9615 1.4826 10.4885 -3.0751 -16.6261 0.0000 -8.8897 51.6499 -22.7186 0.6514 0.0000 -35.5841 -51.3107 -4.1022 1.9459 0.0000 4.4688 -0.0000 -8.2429 -45.6294 23.6112 38.3911 180.0000 -72.6485 152.1368 26.6613 -9.0223 0.0000
 -64.5588 -1.3568 28.0313 -3.2969 3.4085 -28.1262 55.3683 -40.7232 64.1311 -0.0000 83.0693 0.0000 0.0000 -0.9870 -9.3932 0.0000 -25.7307 -0.0000 -17.4427 22.9307 -2.1573 -0.0000 24.1818 0.0000 0.0000 -5.5858 -23.3101 0.0000 -38.3287 -0.0000 -66.5714 1.0916 34.0065 3.7081 0.6458 -0.3589 -66.3944 0.9998 52.9520 1.5150 10.3059 -3.2014 -16.6206 0.0000 -8.5781 51.6101 -23.3079 0.2058 0.0000 -35.1824 -51.0944 -3.9778 1.9229 -0.0000 4.3516 -0.0000 -8.4361 -45.5450 23.5384 38.5364 180.0000 -72.6851 152.0707 26.4986 -9.0740 0.0000
 -64.5613 -1.3596 28.0323 -3.2922 3.4023 -28.1424 55.3736 -40.6948 64.1454 -0.0000 83.0538 0.0000 0.0000 -0.9833 -9.4137 0.0000 -25.7227 -0.0000 -17.4626 22.9322 -2.1680 -0.0000 24.1797 0.0000 0.0000 -5.7059 -23.2538 0.0000 -38.1029 -0.0000 -66.5762 1.0916 34.0102 3.6964 0.6709 -0.4139 -66.3840 0.9881 52.9352 1.4938 10.0216 -3.1889 -16.6174 0.0000 -8.5706 51.6381 -23.2551 0.3037 0.0000 -35.2544 -51.0568 -3.9371 1.9477 -0.0000 4.3637 -0.0000 -8.3926 -45.5609 23.5120 38.5180 180.0000 -72.7107 152.0845 26.6645 -9.0026 0.0000
 -64.5620 -1.3611 28.0330 -3.2880 3.3985 -28.1447 55.3782 -40.6716 64.1538 -0.0000 83.0537 0.0000 0.0000 -0.9611 -9.4744 0.0000 -25.6883 -0.0000 -17.4628 22.9314 -2.1765 -0.0000 24.1829 0.0000 0.0000 -5.6888 -23.2478 0.0000 -38.1430 -0.0000 -66.5775 1.0898 34.0114 3.6944 0.6705 -0.4304 -66.3883 0.9891 52.9353 1.4945 9.9690 -3.2301 -16.6145 0.0000 -8.5802 51.6521 -23.2537 0.3197 0.0000 -35.2207 -51.0887 -3.8791 1.9004 -0.0000 4.3577 -0.0000 -8.3844 -45.5879 23.5077 38.5610 180.0000 -72.7074 152.1010 26.6355 -8.9968 0.0000
 -64.5650 -1.3641 28.0349 -3.2853 3.3923 -28.1506 55.3802 -40.6525 64.1560 -0.0000 83.0405 0.0000 0.0000 -0.9561 -9.4897 0.0000 -25.6391 -0.0000 -17.4671 22.9307 -2.1889 -0.0000 24.1838 0.0000 0.0000 -5.6926 -23.2440 -0.0000 -38.1578 -0.0000 -66.5790 1.0881 34.0137 3.6860 0.6707 -0.4470 -66.3853 0.9859 52.9312 1.5024 9.8462 -3.2499 -16.6145 0.0000 -8.5897 51.6699 -23.2507 0.3499 0.0000 -35.1953 -51.1087 -3.8348 1.8635 0.0000 4.3543 -0.0000 -8.3678 -45.6092 23.5045 38.5971 180.0000 -72.7168 152.0886 26.5865 -8.9355 0.0000
 -64.5656 -1.3646 28.0356 -3.2842 3.3909 -28.1522 55.3808 -40.6458 64.1582 -0.0000 83.0385 0.0000 0.0000 -0.9498 -9.4969 0.0000 -25.6366 -0.0000 -17.4693 22.9306 -2.1885 -0.0000 24.1842 0.0000 0.0000 -5.6882 -23.2458 -0.0000 -38.1514 -0.0000 -66.5795 1.0872 34.0150 3.6858 0.6686 -0.4531 -66.3900 0.9852 52.9312 1.5214 9.8033 -3.2795 -16.6127 0.0000 -8.5956 51.6757 -23.2560 0.3545 0.0000 -35.1893 -51.1185 -3.8716 1.9172 0.0000 4.3471 -0.0000 -8.3650 -45.6275 23.5062 38.6118 180.0000 -72.7258 152.1122 26.6758 -8.8446 0.0000
 -64.5656 -1.3646 28.0356 -3.2842 3.3909 -28.1522 55.3808 -40.6458 64.1582 -0.0000 83.0385 0.0000 0.0000 -0.9498 -9.4969 0.0000 -25.6366 -0.0000 -17.4693 22.9306 -2.1885 -0.0000 24.1842 0.0000 0.0000 -5.6882 -23.2458 -0.0000 -38.1514 -0.0000 -66.5795 1.0872 34.0150 3.6858 0.6686 -0.4531 -66.3900 0.9852 52.9312 1.5214 9.8033 -3.2795 -16.6127 0.0000 -8.5956 51.6757 -23.2560 0.3545 0.0000 -35.1893 -51.1185 -3.8716 1.9172 0.0000 4.3471 -0.0000 -8.3650 -45.6275 23.5062 38.6118 180.0000 -72.7258 152.1122 26.6758 -8.8446 0.0000
 -64.5714 -1.3683 28.0393 -3.2806 3.3851 -28.1602 55.3893 -40.6225 64.1779 -0.0000 83.0198 0.0000 0.0000 -0.9146 -9.5230 0.0000 -25.6383 -0.0000 -17.4769 22.9342 -2.1957 -0.0000 24.1665 0.0000 0.0000 -5.6714 -23.2425 -0.0000 -38.2132 -0.0000 -66.5831 1.0832 34.0196 3.6789 0.6607 -0.4747 -66.3934 0.9827 52.9313 1.5439 9.7271 -3.3200 -16.6117 0.0000 -8.6180 51.7052 -23.2623 0.3847 0.0000 -35.0984 -51.1547 -3.7686 1.8440 0.0000 4.3385 -0.0000 -8.3493 -45.6532 23.4863 38.6698 180.0000 -72.7451 152.0990 26.5948 -8.8306 0.0000
 -64.5714 -1.3683 28.0393 -3.2806 3.3851 -28.1602 55.3893 -40.6225 64.1779 -0.0000 83.0198 0.0000 0.0000 -0.9146 -9.5230 0.0000 -25.6383 -0.0000 -17.4769 22.9342 -2.1957 -0.0000 24.1665 0.0000 0.0000 -5.6714 -23.2425 -0.0000 -38.2132 -0.0000 -66.5831 1.0832 34.0196 3.6789 0.6607 -0.4747 -66.3934 0.9827 52.9313 1.5439 9.7271 -3.3200 -16.6117 0.0000 -8.6180 51.7052 -23.2623 0.3847 0.0000 -35.0984 -51.1547 -3.7686 1.8440 0.0000 4.3385 -0.0000 -8.3493 -45.6532 23.4863 38.6698 180.0000 -72.7451 152.0990 26.5948 -8.8306 0.0000
